<svg width="261" height="132" viewBox="0 0 261 132" fill="none" xmlns="http://www.w3.org/2000/svg">
<rect width="259" height="132" fill="#0533A9"/>
<path d="M23.7236 23.3283C23.7556 23.4243 23.7876 23.5123 23.8196 23.5923C23.8516 23.6723 23.8756 23.7603 23.8916 23.8563C23.9236 23.9523 23.9396 24.0403 23.9396 24.1203C23.9396 24.2323 23.8996 24.3203 23.8196 24.3843C23.7396 24.4643 23.6436 24.5283 23.5316 24.5763C23.4356 24.6243 23.3396 24.6563 23.2436 24.6723C23.1476 24.6883 23.0916 24.6963 23.0756 24.6963C22.9796 24.6963 22.8036 24.4003 22.5476 23.8083C22.2916 23.2323 22.0116 22.4163 21.7076 21.3603C21.4196 20.3043 21.1236 19.0483 20.8196 17.5923C20.5156 16.1363 20.2676 14.5363 20.0756 12.7923C20.0436 13.1603 19.9796 13.5923 19.8836 14.0883C19.8036 14.5683 19.6756 15.0243 19.4996 15.4563C19.3236 15.8883 19.0916 16.2563 18.8036 16.5603C18.5316 16.8483 18.1796 16.9923 17.7476 16.9923C17.4436 16.9923 17.0996 16.8323 16.7156 16.5123C16.3316 16.1923 15.9556 15.8163 15.5876 15.3843C15.2356 14.9363 14.9076 14.4883 14.6036 14.0403C14.3156 13.5763 14.0996 13.2003 13.9556 12.9123C14.0196 13.6163 14.1236 14.4643 14.2676 15.4563C14.4276 16.4483 14.6676 17.4963 14.9876 18.6003C15.0196 18.7123 15.0516 18.8003 15.0836 18.8643C15.1316 18.9123 15.1716 18.9683 15.2036 19.0323C15.2516 19.0963 15.2836 19.1683 15.2996 19.2483C15.3316 19.3123 15.3476 19.4163 15.3476 19.5603C15.3476 19.7683 15.2676 19.9203 15.1076 20.0163C14.9476 20.1123 14.7956 20.1603 14.6516 20.1603C14.5716 20.1603 14.4676 20.0403 14.3396 19.8003C14.2116 19.5443 14.0756 19.2163 13.9316 18.8163C13.7876 18.4163 13.6436 17.9763 13.4996 17.4963C13.3556 17.0003 13.2196 16.5123 13.0916 16.0323C12.9796 15.5523 12.8836 15.1043 12.8036 14.6883C12.7236 14.2563 12.6836 13.9123 12.6836 13.6563C12.6836 13.2403 12.6996 12.9523 12.7316 12.7923C12.7796 12.6323 12.8436 12.5123 12.9236 12.4323V10.9683C12.9236 10.7443 12.9796 10.5763 13.0916 10.4643C13.2196 10.3363 13.3796 10.2723 13.5716 10.2723C13.7316 10.2723 13.9156 10.4083 14.1236 10.6803C14.3316 10.9523 14.5556 11.2963 14.7956 11.7123C15.0516 12.1283 15.3156 12.5763 15.5876 13.0563C15.8596 13.5363 16.1236 13.9843 16.3796 14.4003C16.6516 14.8163 16.9076 15.1603 17.1476 15.4323C17.4036 15.7043 17.6436 15.8403 17.8676 15.8403C18.0756 15.8403 18.2756 15.6483 18.4676 15.2643C18.6596 14.8643 18.8356 14.3443 18.9956 13.7043C19.1716 13.0643 19.3236 12.3363 19.4516 11.5203C19.5796 10.7043 19.6836 9.87226 19.7636 9.02426C19.7636 8.92826 19.7556 8.82426 19.7396 8.71226C19.7236 8.58426 19.7156 8.44826 19.7156 8.30426C19.7156 8.11226 19.7556 7.90426 19.8356 7.68026C19.9316 7.45626 20.1076 7.34426 20.3636 7.34426C20.5076 7.34426 20.6196 7.38426 20.6996 7.46426C20.7956 7.54426 20.8596 7.64826 20.8916 7.77626C20.9236 7.88826 20.9396 8.00826 20.9396 8.13626C20.9556 8.24826 20.9636 8.34426 20.9636 8.42426C20.9636 8.55226 20.9476 8.76826 20.9156 9.07226C20.8996 9.36026 20.8916 9.80826 20.8916 10.4163C20.8916 10.9443 20.9316 11.5603 21.0116 12.2643C21.0916 12.9523 21.1956 13.6883 21.3236 14.4723C21.4676 15.2403 21.6276 16.0403 21.8036 16.8723C21.9956 17.6883 22.1956 18.4883 22.4036 19.2723C22.6276 20.0563 22.8436 20.8003 23.0516 21.5043C23.2756 22.1923 23.4996 22.8003 23.7236 23.3283ZM25.9483 10.9923C25.9483 11.0243 25.8923 11.0883 25.7803 11.1843C25.6683 11.2803 25.5323 11.3843 25.3723 11.4963C25.2283 11.5923 25.0763 11.6803 24.9163 11.7603C24.7563 11.8403 24.6283 11.8803 24.5323 11.8803C24.4683 11.8803 24.3803 11.8803 24.2683 11.8803C24.1723 11.8643 24.0683 11.8323 23.9563 11.7843C23.8603 11.7363 23.7723 11.6723 23.6923 11.5923C23.6123 11.4963 23.5723 11.3763 23.5723 11.2323C23.5723 11.0083 23.6523 10.8003 23.8123 10.6083C23.9723 10.4003 24.1803 10.2963 24.4363 10.2963C24.4843 10.2963 24.5883 10.3203 24.7483 10.3683C24.9243 10.4003 25.1003 10.4483 25.2763 10.5123C25.4523 10.5763 25.6043 10.6483 25.7323 10.7283C25.8763 10.8083 25.9483 10.8963 25.9483 10.9923ZM26.7403 19.9683C26.7403 20.0803 26.6523 20.1763 26.4763 20.2563C26.3163 20.3363 26.1963 20.3763 26.1163 20.3763C25.9563 20.3763 25.8123 20.2723 25.6843 20.0643C25.5563 19.8563 25.4443 19.6163 25.3483 19.3443C25.2523 19.0723 25.1723 18.8163 25.1083 18.5763C25.0443 18.3203 24.9963 18.1443 24.9643 18.0483C24.9163 17.8883 24.8523 17.6963 24.7723 17.4723C24.6923 17.2483 24.6123 17.0323 24.5323 16.8243C24.4683 16.6163 24.4123 16.4323 24.3643 16.2723C24.3163 16.1123 24.2923 16.0243 24.2923 16.0083C24.2923 15.7843 24.3323 15.5763 24.4123 15.3843C24.5083 15.1923 24.6203 15.0963 24.7483 15.0963C24.8923 15.0963 25.0443 15.2083 25.2043 15.4323C25.3643 15.6563 25.5163 15.9443 25.6603 16.2963C25.8203 16.6323 25.9643 17.0083 26.0923 17.4243C26.2203 17.8243 26.3323 18.2083 26.4283 18.5763C26.5243 18.9283 26.5963 19.2403 26.6443 19.5123C26.7083 19.7683 26.7403 19.9203 26.7403 19.9683ZM35.1709 17.6643C35.1709 17.8243 35.1469 17.9923 35.0989 18.1683C35.0509 18.3283 35.0029 18.4643 34.9549 18.5763C34.9229 18.6243 34.7709 18.7923 34.4989 19.0803C34.2429 19.3523 33.9149 19.6403 33.5149 19.9443C33.1309 20.2483 32.6909 20.5283 32.1949 20.7843C31.7149 21.0243 31.2509 21.1443 30.8029 21.1443C30.5309 21.1443 30.2509 21.0963 29.9629 21.0003C29.6909 20.9043 29.4349 20.7523 29.1949 20.5443C28.9549 20.3203 28.7549 20.0483 28.5949 19.7283C28.4509 19.4083 28.3789 19.0163 28.3789 18.5523C28.3789 17.7843 28.5069 17.0883 28.7629 16.4643C29.0189 15.8403 29.2749 15.3443 29.5309 14.9763C29.6429 14.8003 29.7869 14.6243 29.9629 14.4483C30.1549 14.2563 30.3389 14.0883 30.5149 13.9443C30.6909 13.7843 30.8509 13.6563 30.9949 13.5603C31.1549 13.4643 31.2669 13.4163 31.3309 13.4163C31.4749 13.4163 31.6029 13.4563 31.7149 13.5363C31.8429 13.6163 31.9069 13.6963 31.9069 13.7763C31.9069 13.9043 31.8669 14.0163 31.7869 14.1123C31.7229 14.1923 31.6269 14.2883 31.4989 14.4003C31.3709 14.4963 31.2189 14.6323 31.0429 14.8083C30.8669 14.9683 30.6829 15.1843 30.4909 15.4563C30.1069 15.9843 29.8189 16.5283 29.6269 17.0883C29.4509 17.6323 29.3629 18.1123 29.3629 18.5283C29.3629 18.9443 29.5149 19.2803 29.8189 19.5363C30.1389 19.7763 30.4669 19.8963 30.8029 19.8963C31.4109 19.8963 31.9469 19.7603 32.4109 19.4883C32.8909 19.2163 33.2989 18.9123 33.6349 18.5763C33.9709 18.2403 34.2429 17.9363 34.4509 17.6643C34.6589 17.3923 34.8109 17.2563 34.9069 17.2563C35.0829 17.2563 35.1709 17.3923 35.1709 17.6643ZM42.7588 14.7123C42.7588 14.8243 42.7108 14.9203 42.6148 15.0003C42.5188 15.0643 42.4068 15.1203 42.2788 15.1683C42.1508 15.2163 42.0228 15.2563 41.8948 15.2883C41.7668 15.3043 41.6628 15.3123 41.5828 15.3123C41.3428 15.3123 41.1828 15.2963 41.1028 15.2643C41.0228 15.2323 40.9588 15.2163 40.9108 15.2163C40.5108 15.2163 40.1908 15.2483 39.9508 15.3123C39.7108 15.3763 39.5188 15.4803 39.3748 15.6243C39.2468 15.7683 39.1588 15.9523 39.1108 16.1763C39.0788 16.3843 39.0628 16.6403 39.0628 16.9443C39.0628 17.4563 39.0788 17.8643 39.1108 18.1683C39.1588 18.4723 39.1988 18.7203 39.2308 18.9123C39.2788 19.1043 39.3188 19.2563 39.3508 19.3683C39.3988 19.4643 39.4228 19.5603 39.4228 19.6563C39.4228 19.7843 39.3508 19.9203 39.2068 20.0643C39.0788 20.2083 38.9588 20.2803 38.8468 20.2803C38.6548 20.2803 38.4788 20.1123 38.3188 19.7763C38.1748 19.4243 38.0468 19.0163 37.9348 18.5523C37.8388 18.0723 37.7588 17.6003 37.6948 17.1363C37.6308 16.6723 37.5988 16.3203 37.5988 16.0803C37.5988 15.8083 37.6228 15.5523 37.6708 15.3123C37.7188 15.0563 37.7828 14.8403 37.8628 14.6643C37.9428 14.4723 38.0308 14.3203 38.1268 14.2083C38.2228 14.0963 38.3188 14.0403 38.4148 14.0403C38.4948 14.0403 38.5588 14.0723 38.6068 14.1363C38.6548 14.1843 38.6948 14.2483 38.7268 14.3283C38.7588 14.3923 38.7908 14.4563 38.8228 14.5203C38.8708 14.5683 38.9268 14.5923 38.9908 14.5923C39.1348 14.5923 39.3668 14.5203 39.6868 14.3763C40.0068 14.2323 40.3988 14.1603 40.8628 14.1603C41.2948 14.1603 41.6148 14.1763 41.8228 14.2083C42.0468 14.2243 42.2628 14.2723 42.4708 14.3523C42.5188 14.3683 42.5748 14.4083 42.6388 14.4723C42.7188 14.5203 42.7588 14.6003 42.7588 14.7123ZM48.9846 16.8483C48.9846 17.2003 48.9366 17.5363 48.8406 17.8563C48.7446 18.1763 48.6166 18.4563 48.4566 18.6963C48.2966 18.9363 48.1046 19.1283 47.8806 19.2723C47.6726 19.4003 47.4406 19.4643 47.1846 19.4643C46.7366 19.4643 46.3846 19.3363 46.1286 19.0803C45.8726 18.8243 45.6726 18.5283 45.5286 18.1923C45.4006 17.8563 45.3126 17.5203 45.2646 17.1843C45.2326 16.8323 45.2166 16.5683 45.2166 16.3923C45.2166 16.1043 45.2566 15.7843 45.3366 15.4323C45.4326 15.0643 45.5526 14.7283 45.6966 14.4243C45.8566 14.1203 46.0326 13.8643 46.2246 13.6563C46.4166 13.4483 46.6166 13.3443 46.8246 13.3443C46.8726 13.3443 46.9446 13.3603 47.0406 13.3923C47.1526 13.4243 47.2646 13.4723 47.3766 13.5363C47.4886 13.6003 47.5846 13.6803 47.6646 13.7763C47.7606 13.8723 47.8246 13.9843 47.8566 14.1123C48.0326 14.1283 48.2086 14.1923 48.3846 14.3043C48.5606 14.4163 48.6566 14.5043 48.6726 14.5683C48.8006 14.9843 48.8806 15.4003 48.9126 15.8163C48.9606 16.2323 48.9846 16.5763 48.9846 16.8483ZM47.9046 16.4163C47.9046 16.1763 47.8806 15.9283 47.8326 15.6723C47.7846 15.4003 47.6886 15.1283 47.5446 14.8563C47.5126 14.8723 47.4726 14.8803 47.4246 14.8803C47.3606 14.8803 47.3046 14.8723 47.2566 14.8563C47.2246 14.8403 47.1926 14.8323 47.1606 14.8323C46.9686 14.8323 46.8166 14.8883 46.7046 15.0003C46.5926 15.0963 46.5046 15.2323 46.4406 15.4083C46.3926 15.5683 46.3606 15.7443 46.3446 15.9363C46.3286 16.1283 46.3206 16.3123 46.3206 16.4883C46.3206 16.6643 46.3286 16.8643 46.3446 17.0883C46.3606 17.2963 46.3926 17.4963 46.4406 17.6883C46.5046 17.8803 46.5846 18.0483 46.6806 18.1923C46.7766 18.3203 46.9046 18.3843 47.0646 18.3843C47.2246 18.3843 47.3606 18.3043 47.4726 18.1443C47.5846 17.9683 47.6726 17.7683 47.7366 17.5443C47.8006 17.3203 47.8406 17.1043 47.8566 16.8963C47.8886 16.6723 47.9046 16.5123 47.9046 16.4163ZM56.8151 18.8643C56.8151 19.1363 56.7191 19.3763 56.5271 19.5843C56.3511 19.7763 56.1191 19.9443 55.8311 20.0883C55.5591 20.2163 55.2551 20.3203 54.9191 20.4003C54.5831 20.4803 54.2631 20.5443 53.9591 20.5923C53.6551 20.6243 53.3831 20.6483 53.1431 20.6643C52.9191 20.6643 52.7751 20.6643 52.7111 20.6643C52.3591 20.6643 52.0871 20.6083 51.8951 20.4963C51.7031 20.3843 51.6071 20.1843 51.6071 19.8963C51.6071 19.8003 51.6151 19.7203 51.6311 19.6563C51.6471 19.5763 51.7111 19.5363 51.8231 19.5363C51.8711 19.5363 51.9511 19.5523 52.0631 19.5843C52.1751 19.6003 52.2631 19.6083 52.3271 19.6083C52.3911 19.6083 52.5911 19.6003 52.9271 19.5843C53.2791 19.5523 53.6471 19.5043 54.0311 19.4403C54.4311 19.3763 54.7831 19.2883 55.0871 19.1763C55.4071 19.0483 55.5671 18.8883 55.5671 18.6963C55.5671 18.6643 55.3991 18.5683 55.0631 18.4083C54.7431 18.2323 54.2551 17.9443 53.5991 17.5443C53.0871 17.2243 52.7271 16.9043 52.5191 16.5843C52.3111 16.2483 52.2071 15.8003 52.2071 15.2403C52.2071 14.8883 52.2791 14.6003 52.4231 14.3763C52.5831 14.1523 52.7911 13.9763 53.0471 13.8483C53.3191 13.7203 53.6231 13.6323 53.9591 13.5843C54.3111 13.5203 54.6791 13.4883 55.0631 13.4883C55.0951 13.4883 55.1911 13.5043 55.3511 13.5363C55.5271 13.5683 55.7111 13.6243 55.9031 13.7043C56.0951 13.7683 56.2631 13.8563 56.4071 13.9683C56.5671 14.0643 56.6471 14.1763 56.6471 14.3043C56.6471 14.3363 56.6151 14.3843 56.5511 14.4483C56.5031 14.5123 56.4151 14.6323 56.2871 14.8083C56.2391 14.7923 56.1511 14.7683 56.0231 14.7363C55.9111 14.7043 55.7751 14.6723 55.6151 14.6403C55.4711 14.5923 55.3191 14.5603 55.1591 14.5443C54.9991 14.5123 54.8711 14.4963 54.7751 14.4963C54.3591 14.4963 54.0231 14.5763 53.7671 14.7363C53.5111 14.8803 53.3831 15.1683 53.3831 15.6003C53.3831 15.8083 53.4631 16.0003 53.6231 16.1763C53.7991 16.3523 54.0151 16.5203 54.2711 16.6803C54.5271 16.8243 54.7991 16.9763 55.0871 17.1363C55.3911 17.2803 55.6711 17.4403 55.9271 17.6163C56.1831 17.7923 56.3911 17.9843 56.5511 18.1923C56.7271 18.3843 56.8151 18.6083 56.8151 18.8643ZM63.1643 16.8483C63.1643 17.2003 63.1163 17.5363 63.0203 17.8563C62.9243 18.1763 62.7963 18.4563 62.6363 18.6963C62.4763 18.9363 62.2843 19.1283 62.0603 19.2723C61.8523 19.4003 61.6203 19.4643 61.3643 19.4643C60.9163 19.4643 60.5643 19.3363 60.3083 19.0803C60.0523 18.8243 59.8523 18.5283 59.7083 18.1923C59.5803 17.8563 59.4923 17.5203 59.4443 17.1843C59.4123 16.8323 59.3963 16.5683 59.3963 16.3923C59.3963 16.1043 59.4363 15.7843 59.5163 15.4323C59.6123 15.0643 59.7323 14.7283 59.8763 14.4243C60.0363 14.1203 60.2123 13.8643 60.4043 13.6563C60.5963 13.4483 60.7963 13.3443 61.0043 13.3443C61.0523 13.3443 61.1243 13.3603 61.2203 13.3923C61.3323 13.4243 61.4443 13.4723 61.5563 13.5363C61.6683 13.6003 61.7643 13.6803 61.8443 13.7763C61.9403 13.8723 62.0043 13.9843 62.0363 14.1123C62.2123 14.1283 62.3883 14.1923 62.5643 14.3043C62.7403 14.4163 62.8363 14.5043 62.8523 14.5683C62.9803 14.9843 63.0603 15.4003 63.0923 15.8163C63.1403 16.2323 63.1643 16.5763 63.1643 16.8483ZM62.0843 16.4163C62.0843 16.1763 62.0603 15.9283 62.0123 15.6723C61.9643 15.4003 61.8683 15.1283 61.7243 14.8563C61.6923 14.8723 61.6523 14.8803 61.6043 14.8803C61.5403 14.8803 61.4843 14.8723 61.4363 14.8563C61.4043 14.8403 61.3723 14.8323 61.3403 14.8323C61.1483 14.8323 60.9963 14.8883 60.8843 15.0003C60.7723 15.0963 60.6843 15.2323 60.6203 15.4083C60.5723 15.5683 60.5403 15.7443 60.5243 15.9363C60.5083 16.1283 60.5003 16.3123 60.5003 16.4883C60.5003 16.6643 60.5083 16.8643 60.5243 17.0883C60.5403 17.2963 60.5723 17.4963 60.6203 17.6883C60.6843 17.8803 60.7643 18.0483 60.8603 18.1923C60.9563 18.3203 61.0843 18.3843 61.2443 18.3843C61.4043 18.3843 61.5403 18.3043 61.6523 18.1443C61.7643 17.9683 61.8523 17.7683 61.9163 17.5443C61.9803 17.3203 62.0203 17.1043 62.0363 16.8963C62.0683 16.6723 62.0843 16.5123 62.0843 16.4163ZM73.4428 4.82426C73.4588 4.85626 73.4668 4.91226 73.4668 4.99226C73.4668 5.07226 73.4668 5.16026 73.4668 5.25626C73.4668 5.36826 73.4268 5.42426 73.3468 5.42426C73.3148 5.42426 73.2748 5.41626 73.2268 5.40026C73.1788 5.38426 73.1388 5.36826 73.1068 5.35226C72.8188 5.22426 72.4668 5.06426 72.0508 4.87226C71.6508 4.66426 71.1948 4.56026 70.6828 4.56026C70.1068 4.56026 69.6428 4.77626 69.2908 5.20826C68.9388 5.64026 68.6668 6.14426 68.4748 6.72026C68.2988 7.28026 68.1788 7.83226 68.1148 8.37626C68.0668 8.92026 68.0428 9.31226 68.0428 9.55226C68.0428 9.72826 68.0668 10.0083 68.1148 10.3923C68.1788 10.7603 68.2588 11.1443 68.3548 11.5443C68.4508 11.9443 68.5628 12.3123 68.6908 12.6483C68.8188 12.9683 68.9468 13.1683 69.0748 13.2483C69.1708 13.2483 69.3388 13.2403 69.5788 13.2243C69.8348 13.2083 70.0428 13.2003 70.2028 13.2003C70.4748 13.2003 70.7308 13.2243 70.9708 13.2723C71.2108 13.3203 71.4588 13.3443 71.7148 13.3443C71.7788 13.3443 71.8748 13.3443 72.0028 13.3443C72.1308 13.3443 72.2588 13.3523 72.3868 13.3683C72.5308 13.3843 72.6508 13.4163 72.7468 13.4643C72.8428 13.4963 72.8908 13.5443 72.8908 13.6083C72.8908 13.6883 72.8348 13.7603 72.7228 13.8243C72.6108 13.8883 72.4828 13.9443 72.3388 13.9923C72.1948 14.0243 72.0508 14.0483 71.9068 14.0643C71.7628 14.0803 71.6508 14.0883 71.5708 14.0883C71.4908 14.0883 71.3868 14.0883 71.2588 14.0883C71.1308 14.0723 70.9868 14.0563 70.8268 14.0403C70.6828 14.0243 70.5388 14.0163 70.3948 14.0163C70.2668 14.0003 70.1548 13.9923 70.0588 13.9923C69.8028 13.9923 69.6428 14.0243 69.5788 14.0883C69.5308 14.1363 69.5068 14.2403 69.5068 14.4003C69.5068 14.6403 69.6108 14.9683 69.8188 15.3843C70.0428 15.7843 70.2828 16.2163 70.5388 16.6803C70.7948 17.1443 71.0268 17.6243 71.2348 18.1203C71.4588 18.6163 71.5708 19.0723 71.5708 19.4883C71.5708 19.5683 71.5468 19.7203 71.4988 19.9443C71.4668 20.1523 71.4108 20.3683 71.3308 20.5923C71.2668 20.8163 71.1708 21.0163 71.0428 21.1923C70.9148 21.3683 70.7708 21.4563 70.6108 21.4563C70.4828 21.4563 70.3628 21.4243 70.2508 21.3603C70.1548 21.2803 70.1068 21.1523 70.1068 20.9763C70.1068 20.7203 70.1708 20.4803 70.2988 20.2563C70.4428 20.0323 70.5148 19.7923 70.5148 19.5363C70.5148 19.4083 70.4508 19.1923 70.3228 18.8883C70.2108 18.5843 70.0668 18.2483 69.8908 17.8803C69.7148 17.4963 69.5228 17.0963 69.3148 16.6803C69.1068 16.2643 68.9068 15.8883 68.7148 15.5523C68.5388 15.2003 68.3868 14.9123 68.2588 14.6883C68.1308 14.4643 68.0588 14.3443 68.0428 14.3283C67.7228 14.4403 67.3948 14.5523 67.0588 14.6643C66.7228 14.7763 66.4188 14.9443 66.1468 15.1683C66.0348 15.2803 65.9308 15.3363 65.8348 15.3363C65.6748 15.3363 65.5228 15.2723 65.3788 15.1443C65.2508 15.0163 65.1868 14.8723 65.1868 14.7123C65.1868 14.5363 65.2348 14.4003 65.3308 14.3043C65.4428 14.1923 65.5468 14.1123 65.6428 14.0643C65.7868 13.9843 66.0108 13.8963 66.3148 13.8003C66.6188 13.7043 66.9228 13.6243 67.2268 13.5603C67.3388 13.5283 67.4428 13.5043 67.5388 13.4883C67.6348 13.4563 67.6828 13.4003 67.6828 13.3203C67.6348 13.1603 67.5628 12.9523 67.4668 12.6963C67.3868 12.4243 67.2988 12.1043 67.2028 11.7363C67.1228 11.3683 67.0508 10.9603 66.9868 10.5123C66.9228 10.0483 66.8908 9.55226 66.8908 9.02426C66.8908 8.44826 66.9548 7.84026 67.0828 7.20026C67.2268 6.56026 67.4428 5.97626 67.7308 5.44826C68.0348 4.90426 68.4108 4.46426 68.8588 4.12826C69.3068 3.77626 69.8428 3.60026 70.4668 3.60026C70.7548 3.60026 71.0748 3.63226 71.4268 3.69626C71.7788 3.74426 72.0988 3.82426 72.3868 3.93626C72.6908 4.03226 72.9388 4.16026 73.1308 4.32026C73.3388 4.46426 73.4428 4.63226 73.4428 4.82426ZM81.3298 11.1843C81.1218 11.4243 80.8258 11.6643 80.4418 11.9043C80.0578 12.1283 79.6738 12.3363 79.2898 12.5283C78.9058 12.7203 78.5698 12.8883 78.2818 13.0323C77.9938 13.1603 77.8498 13.2483 77.8498 13.2963C77.8498 13.3443 77.8818 13.4883 77.9458 13.7283C78.0098 13.9683 78.0818 14.2563 78.1618 14.5923C78.2578 14.9123 78.3538 15.2483 78.4498 15.6003C78.5458 15.9523 78.6258 16.2643 78.6898 16.5363C78.7218 16.6963 78.7618 16.9043 78.8098 17.1603C78.8578 17.4163 78.8978 17.6723 78.9298 17.9283C78.9778 18.1843 79.0178 18.4163 79.0498 18.6243C79.0818 18.8163 79.0978 18.9203 79.0978 18.9363C79.0978 19.1763 79.0578 19.4243 78.9778 19.6803C78.8978 19.9363 78.7698 20.0643 78.5938 20.0643C78.4978 20.0643 78.4098 20.0243 78.3298 19.9443C78.2498 19.8643 78.1778 19.7763 78.1138 19.6803C78.0498 19.5683 78.0018 19.4643 77.9698 19.3683C77.9378 19.2723 77.9218 19.2003 77.9218 19.1523C77.9218 19.1203 77.9218 19.0723 77.9218 19.0083C77.9378 18.9443 77.9458 18.8723 77.9458 18.7923C77.9458 18.4883 77.8978 18.0483 77.8018 17.4723C77.7698 17.2963 77.7058 17.0243 77.6098 16.6563C77.5138 16.2883 77.4178 15.9123 77.3218 15.5283C77.2098 15.0803 77.0818 14.5923 76.9378 14.0643C76.8738 13.8403 76.8338 13.7283 76.8178 13.7283C76.7058 13.7283 76.5138 13.8003 76.2418 13.9443C75.9858 14.0723 75.6898 14.2403 75.3538 14.4483C75.0178 14.6403 74.6658 14.8563 74.2978 15.0963C73.9298 15.3203 73.5858 15.5363 73.2658 15.7443C72.9458 15.9363 72.6738 16.1043 72.4498 16.2483C72.2098 16.3763 72.0658 16.4403 72.0178 16.4403C71.8098 16.4403 71.6418 16.3683 71.5138 16.2243C71.3858 16.0803 71.3218 15.9203 71.3218 15.7443C71.3218 15.6483 71.4578 15.5123 71.7298 15.3363C71.9858 15.1443 72.3138 14.9363 72.7138 14.7123C73.0978 14.4883 73.5218 14.2563 73.9858 14.0163C74.4338 13.7763 74.8498 13.5603 75.2338 13.3683C75.6338 13.1763 75.9618 13.0163 76.2178 12.8883C76.4898 12.7603 76.6258 12.6963 76.6258 12.6963C76.4818 11.9603 76.3618 11.3043 76.2658 10.7283C76.1858 10.2323 76.1058 9.77626 76.0258 9.36026C75.9618 8.94426 75.9298 8.72026 75.9298 8.68826C75.9298 8.48026 75.9698 8.32826 76.0498 8.23226C76.1458 8.12026 76.2498 8.06426 76.3618 8.06426C76.5378 8.06426 76.6498 8.18426 76.6978 8.42426C76.8738 9.28826 77.0338 10.0563 77.1778 10.7283C77.3378 11.4003 77.4898 11.9443 77.6338 12.3603C77.7778 12.3283 78.0258 12.2403 78.3778 12.0963C78.7298 11.9363 79.0978 11.7683 79.4818 11.5923C79.8658 11.4163 80.2098 11.2643 80.5138 11.1363C80.8338 10.9923 81.0178 10.9203 81.0658 10.9203C81.1618 10.9203 81.2178 10.9523 81.2338 11.0163C81.2658 11.0803 81.2978 11.1363 81.3298 11.1843ZM19.7636 47.0883C19.7796 47.1523 19.7876 47.2083 19.7876 47.2563C19.7876 47.3203 19.7876 47.3683 19.7876 47.4003C19.7876 47.5603 19.7476 47.6723 19.6676 47.7363C19.6036 47.8003 19.4676 47.8323 19.2596 47.8323C19.0676 47.8323 18.9396 47.8003 18.8756 47.7363C18.7796 47.6403 18.6516 47.3923 18.4916 46.9923C18.3316 46.5923 18.1636 46.1203 17.9876 45.5763C17.8116 45.0323 17.6356 44.4483 17.4596 43.8243C17.2996 43.2003 17.1556 42.6083 17.0276 42.0483C16.8516 42.1283 16.6116 42.2163 16.3076 42.3123C16.0036 42.3923 15.6916 42.4723 15.3716 42.5523C15.0036 42.6323 14.6196 42.7203 14.2196 42.8163C14.0756 43.5043 13.9636 44.0963 13.8836 44.5923C13.8196 45.0723 13.7556 45.4723 13.6916 45.7923C13.6436 46.0963 13.5716 46.3203 13.4756 46.4643C13.3956 46.6243 13.2596 46.7043 13.0676 46.7043C12.9396 46.7043 12.8276 46.6323 12.7316 46.4883C12.6356 46.3443 12.5876 46.1283 12.5876 45.8403C12.5876 45.6963 12.6276 45.3603 12.7076 44.8323C12.7876 44.3043 12.8756 43.7203 12.9716 43.0803C13.0676 42.4243 13.1636 41.7763 13.2596 41.1363C13.3556 40.4963 13.4196 39.9923 13.4516 39.6243C13.4676 39.4323 13.5156 39.1203 13.5956 38.6883C13.6916 38.2563 13.7876 37.8163 13.8836 37.3683C13.9796 36.9043 14.0756 36.4883 14.1716 36.1203C14.2676 35.7523 14.3316 35.5443 14.3636 35.4963C14.6196 34.9043 14.7796 34.2963 14.8436 33.6723C14.9236 33.0483 14.9796 32.4803 15.0116 31.9683C15.0596 31.4403 15.1316 31.0163 15.2276 30.6963C15.3236 30.3603 15.5236 30.1923 15.8276 30.1923C15.9076 30.1923 15.9876 30.2563 16.0676 30.3843C16.1636 30.5123 16.2516 30.6643 16.3316 30.8403C16.4116 31.0163 16.4756 31.1923 16.5236 31.3683C16.5716 31.5283 16.6036 31.6563 16.6196 31.7523C16.6356 31.8483 16.6516 32.0403 16.6676 32.3283C16.6996 32.6163 16.7236 32.9363 16.7396 33.2883C16.7716 33.6243 16.7956 33.9603 16.8116 34.2963C16.8436 34.6163 16.8676 34.8643 16.8836 35.0403C16.9316 35.5683 17.0036 36.1603 17.0996 36.8163C17.2116 37.4723 17.3236 38.0883 17.4356 38.6643C17.5476 39.2403 17.6516 39.7283 17.7476 40.1283C17.8436 40.5123 17.9156 40.7043 17.9636 40.7043C18.0276 40.7043 18.1076 40.6883 18.2036 40.6563C18.3156 40.6243 18.4196 40.6083 18.5156 40.6083C18.6436 40.6083 18.7076 40.6723 18.7076 40.8003C18.7076 40.9283 18.6756 41.0323 18.6116 41.1123C18.5476 41.1923 18.4756 41.2643 18.3956 41.3283C18.3316 41.3923 18.2676 41.4483 18.2036 41.4963C18.1556 41.5443 18.1316 41.6003 18.1316 41.6643C18.1316 41.7923 18.2036 42.1203 18.3476 42.6483L18.7316 44.0643C18.7636 44.1923 18.8356 44.4083 18.9476 44.7123C19.0596 45.0163 19.1716 45.3363 19.2836 45.6723C19.4116 45.9923 19.5236 46.2883 19.6196 46.5603C19.7156 46.8483 19.7636 47.0243 19.7636 47.0883ZM14.4356 41.5923C14.5316 41.5923 14.7076 41.5683 14.9636 41.5203C15.2196 41.4563 15.4836 41.3843 15.7556 41.3043C16.0276 41.2243 16.2676 41.1443 16.4756 41.0643C16.6836 40.9843 16.7876 40.9203 16.7876 40.8723C16.7876 40.8243 16.7556 40.7043 16.6916 40.5123C16.6436 40.3043 16.5796 40.0483 16.4996 39.7443C16.4356 39.4243 16.3636 39.0643 16.2836 38.6643C16.2036 38.2643 16.1316 37.8403 16.0676 37.3923C16.0356 37.1043 15.9956 36.7123 15.9476 36.2163C15.8996 35.7203 15.8516 35.2323 15.8036 34.7523C15.7556 34.2563 15.7156 33.8323 15.6836 33.4803C15.6516 33.1283 15.6356 32.9523 15.6356 32.9523C15.6356 32.9523 15.6116 33.0723 15.5636 33.3123C15.5156 33.5363 15.4596 33.7923 15.3956 34.0803C15.3476 34.3523 15.2996 34.6163 15.2516 34.8723C15.2196 35.1123 15.2036 35.2483 15.2036 35.2803V35.9523C15.2036 35.9843 15.1796 36.1283 15.1316 36.3843C15.0996 36.6243 15.0516 36.9363 14.9876 37.3203C14.9236 37.6883 14.8516 38.0963 14.7716 38.5443C14.7076 38.9763 14.6436 39.3923 14.5796 39.7923C14.5156 40.1923 14.4596 40.5523 14.4116 40.8723C14.3796 41.1763 14.3636 41.3843 14.3636 41.4963C14.3636 41.5603 14.3876 41.5923 14.4356 41.5923ZM25.1696 45.3363C25.1696 45.4643 25.1216 45.5603 25.0256 45.6243C24.9296 45.6883 24.8176 45.7203 24.6896 45.7203C24.5456 45.7203 24.3936 45.5843 24.2336 45.3123C24.0896 45.0403 23.9456 44.6963 23.8016 44.2803C23.6576 43.8643 23.5216 43.4163 23.3936 42.9363C23.2656 42.4403 23.1536 41.9843 23.0576 41.5683C22.9616 41.1363 22.8816 40.7763 22.8176 40.4883C22.7696 40.2003 22.7456 40.0403 22.7456 40.0083C22.7456 39.9443 22.7136 39.7763 22.6496 39.5043C22.6016 39.2323 22.5296 38.8083 22.4336 38.2323C22.3536 37.6563 22.2576 36.9123 22.1456 36.0003C22.0496 35.0723 21.9456 33.9283 21.8336 32.5683C21.8336 32.4243 21.8576 32.2403 21.9056 32.0163C21.9536 31.7923 22.0656 31.6803 22.2416 31.6803C22.4656 31.6803 22.6336 31.8323 22.7456 32.1363C22.8736 32.4403 22.9696 32.8163 23.0336 33.2643C23.1136 33.7123 23.1696 34.1843 23.2016 34.6803C23.2336 35.1603 23.2736 35.5843 23.3216 35.9523C23.3856 36.4643 23.4416 36.9283 23.4896 37.3443C23.5536 37.7603 23.6096 38.1763 23.6576 38.5923C23.7216 38.9923 23.7936 39.4163 23.8736 39.8643C23.9696 40.3123 24.0816 40.8083 24.2096 41.3523L25.1696 45.3363ZM38.4401 41.0403C38.4401 41.3283 38.3041 41.6883 38.0321 42.1203C37.7761 42.5363 37.4241 42.9443 36.9761 43.3443C36.5281 43.7443 36.0081 44.0883 35.4161 44.3763C34.8241 44.6483 34.2081 44.7843 33.5681 44.7843C33.2801 44.7843 32.9761 44.7363 32.6561 44.6403C32.3361 44.5443 32.0241 44.4083 31.7201 44.2323C31.4161 44.0403 31.1441 43.8163 30.9041 43.5603C30.6641 43.2883 30.4881 42.9843 30.3761 42.6483C30.2801 42.7443 30.1601 42.9043 30.0161 43.1283C29.8881 43.3523 29.7441 43.5843 29.5841 43.8243C29.4241 44.0483 29.2481 44.2483 29.0561 44.4243C28.8641 44.5843 28.6641 44.6643 28.4561 44.6643C28.2481 44.6643 28.0721 44.5603 27.9281 44.3523C27.8001 44.1283 27.6961 43.8883 27.6161 43.6323C27.5361 43.3603 27.4801 43.1043 27.4481 42.8643C27.4161 42.6243 27.4001 42.4883 27.4001 42.4563C27.4001 42.2643 27.4561 41.9043 27.5681 41.3763C27.6801 40.8323 27.8481 40.2723 28.0721 39.6963C28.2961 39.1203 28.5761 38.6083 28.9121 38.1603C29.2641 37.7123 29.6721 37.4883 30.1361 37.4883C30.3121 37.4883 30.4241 37.5683 30.4721 37.7283C30.5361 37.8723 30.5681 38.0163 30.5681 38.1603V38.8803C30.6481 38.9443 30.7281 38.9923 30.8081 39.0243C30.9041 39.0403 30.9841 39.0723 31.0481 39.1203C31.1281 39.1523 31.1841 39.2083 31.2161 39.2883C31.2641 39.3683 31.2881 39.4963 31.2881 39.6723C31.2881 39.7843 31.2801 39.8883 31.2641 39.9843C31.2481 40.0643 31.2401 40.1443 31.2401 40.2243C31.2401 40.6403 31.2721 41.0483 31.3361 41.4483C31.4001 41.8483 31.5281 42.2083 31.7201 42.5283C31.9121 42.8323 32.1761 43.0883 32.5121 43.2963C32.8481 43.4883 33.2961 43.5843 33.8561 43.5843C34.5601 43.5843 35.1521 43.4403 35.6321 43.1523C36.1281 42.8483 36.5361 42.5203 36.8561 42.1683C37.1921 41.8003 37.4561 41.4723 37.6481 41.1843C37.8401 40.8803 38.0001 40.7283 38.1281 40.7283C38.3361 40.7283 38.4401 40.8323 38.4401 41.0403ZM30.0161 39.9843C30.0161 39.9203 30.0001 39.8643 29.9681 39.8163C29.9361 39.7523 29.9201 39.6963 29.9201 39.6483C29.9201 39.5843 29.9361 39.5283 29.9681 39.4803C30.0001 39.4323 30.0161 39.3683 30.0161 39.2883C30.0161 39.2403 30.0001 39.2083 29.9681 39.1923C29.9361 39.1603 29.9201 39.1283 29.9201 39.0963C29.7761 39.1283 29.6241 39.2643 29.4641 39.5043C29.3201 39.7443 29.1761 40.0243 29.0321 40.3443C28.9041 40.6643 28.8001 40.9923 28.7201 41.3283C28.6401 41.6483 28.6001 41.9123 28.6001 42.1203C28.6001 42.2323 28.6321 42.4163 28.6961 42.6723C28.7601 42.9283 28.8321 43.0963 28.9121 43.1763C29.1841 42.6163 29.4321 42.0723 29.6561 41.5443C29.8961 41.0163 30.0161 40.4963 30.0161 39.9843ZM44.3995 38.7123C44.3995 38.8243 44.3515 38.9203 44.2555 39.0003C44.1595 39.0643 44.0475 39.1203 43.9195 39.1683C43.7915 39.2163 43.6635 39.2563 43.5355 39.2883C43.4075 39.3043 43.3035 39.3123 43.2235 39.3123C42.9835 39.3123 42.8235 39.2963 42.7435 39.2643C42.6635 39.2323 42.5995 39.2163 42.5515 39.2163C42.1515 39.2163 41.8315 39.2483 41.5915 39.3123C41.3515 39.3763 41.1595 39.4803 41.0155 39.6243C40.8875 39.7683 40.7995 39.9523 40.7515 40.1763C40.7195 40.3843 40.7035 40.6403 40.7035 40.9443C40.7035 41.4563 40.7195 41.8643 40.7515 42.1683C40.7995 42.4723 40.8395 42.7203 40.8715 42.9123C40.9195 43.1043 40.9595 43.2563 40.9915 43.3683C41.0395 43.4643 41.0635 43.5603 41.0635 43.6563C41.0635 43.7843 40.9915 43.9203 40.8475 44.0643C40.7195 44.2083 40.5995 44.2803 40.4875 44.2803C40.2955 44.2803 40.1195 44.1123 39.9595 43.7763C39.8155 43.4243 39.6875 43.0163 39.5755 42.5523C39.4795 42.0723 39.3995 41.6003 39.3355 41.1363C39.2715 40.6723 39.2395 40.3203 39.2395 40.0803C39.2395 39.8083 39.2635 39.5523 39.3115 39.3123C39.3595 39.0563 39.4235 38.8403 39.5035 38.6643C39.5835 38.4723 39.6715 38.3203 39.7675 38.2083C39.8635 38.0963 39.9595 38.0403 40.0555 38.0403C40.1355 38.0403 40.1995 38.0723 40.2475 38.1363C40.2955 38.1843 40.3355 38.2483 40.3675 38.3283C40.3995 38.3923 40.4315 38.4563 40.4635 38.5203C40.5115 38.5683 40.5675 38.5923 40.6315 38.5923C40.7755 38.5923 41.0075 38.5203 41.3275 38.3763C41.6475 38.2323 42.0395 38.1603 42.5035 38.1603C42.9355 38.1603 43.2555 38.1763 43.4635 38.2083C43.6875 38.2243 43.9035 38.2723 44.1115 38.3523C44.1595 38.3683 44.2155 38.4083 44.2795 38.4723C44.3595 38.5203 44.3995 38.6003 44.3995 38.7123ZM56.9852 43.7763C56.9852 43.9043 56.9452 44.0163 56.8652 44.1123C56.7852 44.2083 56.6892 44.2883 56.5772 44.3523C56.4652 44.4003 56.3452 44.4403 56.2172 44.4723C56.1052 44.5043 56.0092 44.5203 55.9292 44.5203C55.5932 44.5203 55.3052 44.3443 55.0652 43.9923C54.8252 43.6243 54.6252 43.2243 54.4652 42.7923C54.3052 42.3443 54.1852 41.9283 54.1052 41.5443C54.0412 41.1603 54.0092 40.9523 54.0092 40.9203C53.9132 41.0963 53.8092 41.3923 53.6972 41.8083C53.6012 42.2243 53.4812 42.6483 53.3372 43.0803C53.1932 43.4963 53.0092 43.8723 52.7852 44.2083C52.5772 44.5283 52.3052 44.6883 51.9692 44.6883C51.8092 44.6883 51.6572 44.5923 51.5132 44.4003C51.3692 44.2083 51.2332 43.9603 51.1052 43.6563C50.9772 43.3523 50.8492 43.0083 50.7212 42.6243C50.6092 42.2403 50.4892 41.8643 50.3612 41.4963C50.2492 41.1283 50.1372 40.7843 50.0252 40.4643C49.9132 40.1283 49.8012 39.8643 49.6892 39.6723C49.5932 39.9123 49.5052 40.2403 49.4252 40.6563C49.3612 41.0723 49.3052 41.5123 49.2572 41.9763C49.2092 42.4243 49.1692 42.8723 49.1372 43.3203C49.1052 43.7683 49.0892 44.1603 49.0892 44.4963C49.0892 44.7203 49.0252 44.8803 48.8972 44.9763C48.7852 45.0723 48.6652 45.1203 48.5372 45.1203C48.3612 45.1203 48.1852 45.0083 48.0092 44.7843C47.8332 44.5443 47.6572 44.2403 47.4812 43.8723C47.3052 43.5043 47.1372 43.0883 46.9772 42.6243C46.8332 42.1603 46.6972 41.6963 46.5692 41.2323C46.4572 40.7683 46.3692 40.3283 46.3052 39.9123C46.2412 39.4803 46.2092 39.1203 46.2092 38.8323C46.2092 38.6243 46.2172 38.4323 46.2332 38.2563C46.2492 38.1123 46.2572 37.9763 46.2572 37.8483C46.2732 37.7203 46.2812 37.6483 46.2812 37.6323C46.2812 37.5843 46.2652 37.5523 46.2332 37.5363C46.2172 37.5203 46.2092 37.4803 46.2092 37.4163C46.2092 37.3683 46.2652 37.2963 46.3772 37.2003C46.5052 37.0883 46.6332 37.0323 46.7612 37.0323C46.9852 37.0323 47.1292 37.0803 47.1932 37.1763C47.2732 37.2723 47.3132 37.3843 47.3132 37.5123C47.3132 37.5603 47.3052 37.6323 47.2892 37.7283C47.2892 37.8243 47.2892 38.0403 47.2892 38.3763C47.2892 38.6003 47.3292 38.9363 47.4092 39.3843C47.4892 39.8323 47.5852 40.2883 47.6972 40.7523C47.8092 41.2163 47.9212 41.6483 48.0332 42.0483C48.1612 42.4323 48.2652 42.6723 48.3452 42.7683C48.3772 42.7043 48.3932 42.6323 48.3932 42.5523C48.4092 42.4563 48.4252 42.3843 48.4412 42.3363L48.7052 40.3683C48.7692 39.8723 48.8972 39.3523 49.0892 38.8083C49.2972 38.2483 49.5132 37.8163 49.7372 37.5123C49.8172 37.3843 49.9052 37.3203 50.0012 37.3203C50.0972 37.3203 50.1852 37.3923 50.2652 37.5363C50.5372 37.9843 50.7372 38.4323 50.8652 38.8803C51.0092 39.3123 51.1292 39.7443 51.2252 40.1763C51.3372 40.5923 51.4572 41.0163 51.5852 41.4483C51.7292 41.8643 51.9452 42.2883 52.2332 42.7203C52.3612 42.5123 52.5212 42.1763 52.7132 41.7123C52.9052 41.2323 53.0972 40.7523 53.2892 40.2723C53.4972 39.7923 53.6892 39.3763 53.8652 39.0243C54.0412 38.6563 54.1772 38.4723 54.2732 38.4723C54.3212 38.4723 54.4012 38.4803 54.5132 38.4963C54.6252 38.5123 54.7052 38.5203 54.7532 38.5203C54.8972 38.5203 55.0172 38.6883 55.1132 39.0243C55.2092 39.3443 55.2892 39.7283 55.3532 40.1763C55.4332 40.6083 55.5052 41.0483 55.5692 41.4963C55.6492 41.9283 55.7372 42.2563 55.8332 42.4803C55.8972 42.6403 55.9932 42.7923 56.1212 42.9363C56.2492 43.0803 56.3772 43.2163 56.5052 43.3443C56.6652 43.4883 56.8252 43.6323 56.9852 43.7763ZM79.3406 40.5363C79.3406 40.7603 79.2766 40.9923 79.1486 41.2323C79.0366 41.4723 78.8926 41.7123 78.7166 41.9523C78.5406 42.1923 78.3486 42.4243 78.1406 42.6483C77.9326 42.8563 77.7406 43.0403 77.5646 43.2003C77.1326 43.5843 76.6846 43.9523 76.2206 44.3043C75.7726 44.6403 75.3006 44.9443 74.8046 45.2163C74.3246 45.4883 73.8206 45.7043 73.2926 45.8643C72.7646 46.0243 72.2126 46.1043 71.6366 46.1043C69.8926 46.1043 69.0206 45.2083 69.0206 43.4163C69.0206 43.2403 69.0926 42.8963 69.2366 42.3843C69.3806 41.8723 69.5646 41.2883 69.7886 40.6323C70.0126 39.9763 70.2766 39.2883 70.5806 38.5683C70.8846 37.8483 71.1966 37.1923 71.5166 36.6003C71.8366 35.9923 72.1486 35.4963 72.4526 35.1123C72.7726 34.7283 73.0686 34.5363 73.3406 34.5363C73.5166 34.5363 73.6446 34.5923 73.7246 34.7043C73.8206 34.8163 73.8686 34.9363 73.8686 35.0643C73.8526 35.1603 73.7406 35.3683 73.5326 35.6883C73.3246 35.9923 73.1086 36.3043 72.8846 36.6243C72.8526 36.6723 72.7966 36.7523 72.7166 36.8643C72.6366 36.9763 72.5566 37.0883 72.4766 37.2003C72.3806 37.3283 72.2846 37.4643 72.1886 37.6083C72.1246 37.7203 71.9806 38.0083 71.7566 38.4723C71.5486 38.9203 71.3246 39.4483 71.0846 40.0563C70.8446 40.6483 70.6286 41.2723 70.4366 41.9283C70.2446 42.5683 70.1486 43.1283 70.1486 43.6083C70.1486 43.8803 70.2046 44.0963 70.3166 44.2563C70.4446 44.4163 70.5886 44.5363 70.7486 44.6163C70.9246 44.6963 71.1006 44.7523 71.2766 44.7843C71.4686 44.8003 71.6366 44.8083 71.7806 44.8083C72.3726 44.8083 72.9966 44.6803 73.6526 44.4243C74.3246 44.1523 74.9646 43.8003 75.5726 43.3683C76.1806 42.9363 76.7406 42.4403 77.2526 41.8803C77.7646 41.3043 78.1646 40.7123 78.4526 40.1043C78.5166 39.9923 78.5806 39.9203 78.6446 39.8883C78.7246 39.8563 78.7966 39.8403 78.8606 39.8403C78.9886 39.8403 79.1006 39.9283 79.1966 40.1043C79.2926 40.2803 79.3406 40.4243 79.3406 40.5363ZM84.5837 45.3363C84.5837 45.4643 84.5357 45.5603 84.4397 45.6243C84.3437 45.6883 84.2317 45.7203 84.1037 45.7203C83.9597 45.7203 83.8077 45.5843 83.6477 45.3123C83.5037 45.0403 83.3597 44.6963 83.2157 44.2803C83.0717 43.8643 82.9357 43.4163 82.8077 42.9363C82.6797 42.4403 82.5677 41.9843 82.4717 41.5683C82.3757 41.1363 82.2957 40.7763 82.2317 40.4883C82.1837 40.2003 82.1597 40.0403 82.1597 40.0083C82.1597 39.9443 82.1277 39.7763 82.0637 39.5043C82.0157 39.2323 81.9437 38.8083 81.8477 38.2323C81.7677 37.6563 81.6717 36.9123 81.5597 36.0003C81.4637 35.0723 81.3597 33.9283 81.2477 32.5683C81.2477 32.4243 81.2717 32.2403 81.3197 32.0163C81.3677 31.7923 81.4797 31.6803 81.6557 31.6803C81.8797 31.6803 82.0477 31.8323 82.1597 32.1363C82.2877 32.4403 82.3837 32.8163 82.4477 33.2643C82.5277 33.7123 82.5837 34.1843 82.6157 34.6803C82.6477 35.1603 82.6877 35.5843 82.7357 35.9523C82.7997 36.4643 82.8557 36.9283 82.9037 37.3443C82.9677 37.7603 83.0237 38.1763 83.0717 38.5923C83.1357 38.9923 83.2077 39.4163 83.2877 39.8643C83.3837 40.3123 83.4957 40.8083 83.6237 41.3523L84.5837 45.3363ZM90.7502 40.8483C90.7502 41.2003 90.7022 41.5363 90.6062 41.8563C90.5102 42.1763 90.3822 42.4563 90.2222 42.6963C90.0622 42.9363 89.8702 43.1283 89.6462 43.2723C89.4382 43.4003 89.2062 43.4643 88.9502 43.4643C88.5022 43.4643 88.1502 43.3363 87.8942 43.0803C87.6382 42.8243 87.4382 42.5283 87.2942 42.1923C87.1662 41.8563 87.0782 41.5203 87.0302 41.1843C86.9982 40.8323 86.9822 40.5683 86.9822 40.3923C86.9822 40.1043 87.0222 39.7843 87.1022 39.4323C87.1982 39.0643 87.3182 38.7283 87.4622 38.4243C87.6222 38.1203 87.7982 37.8643 87.9902 37.6563C88.1822 37.4483 88.3822 37.3443 88.5902 37.3443C88.6382 37.3443 88.7102 37.3603 88.8062 37.3923C88.9182 37.4243 89.0302 37.4723 89.1422 37.5363C89.2542 37.6003 89.3502 37.6803 89.4302 37.7763C89.5262 37.8723 89.5902 37.9843 89.6222 38.1123C89.7982 38.1283 89.9742 38.1923 90.1502 38.3043C90.3262 38.4163 90.4222 38.5043 90.4382 38.5683C90.5662 38.9843 90.6462 39.4003 90.6782 39.8163C90.7262 40.2323 90.7502 40.5763 90.7502 40.8483ZM89.6702 40.4163C89.6702 40.1763 89.6462 39.9283 89.5982 39.6723C89.5502 39.4003 89.4542 39.1283 89.3102 38.8563C89.2782 38.8723 89.2382 38.8803 89.1902 38.8803C89.1262 38.8803 89.0702 38.8723 89.0222 38.8563C88.9902 38.8403 88.9582 38.8323 88.9262 38.8323C88.7342 38.8323 88.5822 38.8883 88.4702 39.0003C88.3582 39.0963 88.2702 39.2323 88.2062 39.4083C88.1582 39.5683 88.1262 39.7443 88.1102 39.9363C88.0942 40.1283 88.0862 40.3123 88.0862 40.4883C88.0862 40.6643 88.0942 40.8643 88.1102 41.0883C88.1262 41.2963 88.1582 41.4963 88.2062 41.6883C88.2702 41.8803 88.3502 42.0483 88.4462 42.1923C88.5422 42.3203 88.6702 42.3843 88.8302 42.3843C88.9902 42.3843 89.1262 42.3043 89.2382 42.1443C89.3502 41.9683 89.4382 41.7683 89.5022 41.5443C89.5662 41.3203 89.6062 41.1043 89.6222 40.8963C89.6542 40.6723 89.6702 40.5123 89.6702 40.4163ZM100.381 43.0803C100.381 43.1763 100.349 43.2723 100.285 43.3683C100.221 43.4643 100.141 43.5523 100.045 43.6323C99.9648 43.7123 99.8688 43.7843 99.7568 43.8483C99.6608 43.8963 99.5728 43.9203 99.4928 43.9203C99.2208 43.9203 98.8688 43.8643 98.4368 43.7523C98.0208 43.6243 97.6848 43.4323 97.4288 43.1763C97.1568 42.9043 96.9168 42.5843 96.7088 42.2163C96.5008 41.8323 96.2688 41.2723 96.0128 40.5363C95.8368 41.2403 95.6288 41.9363 95.3888 42.6243C95.1648 43.3123 94.7968 43.9443 94.2848 44.5203C94.2528 44.5523 94.2048 44.5683 94.1408 44.5683C94.0288 44.5683 93.9088 44.5123 93.7808 44.4003C93.6528 44.2883 93.5888 44.1763 93.5888 44.0643C93.5888 43.9523 93.5728 43.6963 93.5408 43.2963C93.5248 42.8803 93.5008 42.4243 93.4688 41.9283C93.4368 41.4163 93.4048 40.9043 93.3728 40.3923C93.3568 39.8643 93.3488 39.4323 93.3488 39.0963C93.3488 38.9363 93.3568 38.7283 93.3728 38.4723C93.3888 38.2003 93.4368 37.9683 93.5168 37.7763C93.5328 37.7443 93.5888 37.6803 93.6848 37.5843C93.7968 37.4883 93.9168 37.4403 94.0448 37.4403C94.1568 37.4403 94.2208 37.5123 94.2368 37.6563C94.2528 37.8003 94.2608 37.9603 94.2608 38.1363V41.9283C94.2608 42.0083 94.2688 42.1203 94.2848 42.2643C94.3168 42.4083 94.3568 42.5123 94.4048 42.5763C94.5808 42.1923 94.7408 41.7443 94.8848 41.2323C95.0448 40.7043 95.1968 40.2083 95.3408 39.7443C95.4848 39.2643 95.6288 38.8643 95.7728 38.5443C95.9168 38.2083 96.0608 38.0403 96.2048 38.0403C96.3648 38.0403 96.4928 38.0723 96.5888 38.1363C96.6848 38.2003 96.7648 38.3283 96.8288 38.5203C96.9088 38.9843 96.9728 39.4003 97.0208 39.7683C97.0688 40.1203 97.1248 40.4403 97.1888 40.7283C97.2688 41.0163 97.3728 41.2883 97.5008 41.5443C97.6448 41.7843 97.8368 42.0083 98.0768 42.2163C98.3008 42.4243 98.5488 42.5763 98.8208 42.6723C99.1088 42.7683 99.3568 42.8163 99.5648 42.8163C99.6608 42.8163 99.7648 42.8003 99.8768 42.7683C99.9888 42.7203 100.069 42.6963 100.117 42.6963C100.181 42.6963 100.237 42.7523 100.285 42.8643C100.349 42.9763 100.381 43.0483 100.381 43.0803ZM108.29 43.5123C108.306 43.5443 108.314 43.5923 108.314 43.6563C108.314 43.7523 108.242 43.8963 108.098 44.0883C108.05 44.1523 107.946 44.2563 107.786 44.4003C107.626 44.5443 107.41 44.6883 107.138 44.8323C106.866 44.9763 106.53 45.1043 106.13 45.2163C105.746 45.3283 105.29 45.3843 104.762 45.3843C104.394 45.3843 104.034 45.3043 103.682 45.1443C103.33 44.9683 103.018 44.7203 102.746 44.4003C102.474 44.0643 102.25 43.6563 102.074 43.1763C101.898 42.6803 101.81 42.1043 101.81 41.4483C101.81 40.8243 101.89 40.2403 102.05 39.6963C102.21 39.1523 102.41 38.6723 102.65 38.2563C102.906 37.8403 103.186 37.5123 103.49 37.2723C103.794 37.0323 104.09 36.9123 104.378 36.9123C104.634 36.9123 104.89 36.9683 105.146 37.0803C105.418 37.1763 105.658 37.3043 105.866 37.4643C106.09 37.6243 106.266 37.8083 106.394 38.0163C106.522 38.2083 106.586 38.4083 106.586 38.6163C106.586 38.8563 106.474 39.1043 106.25 39.3603C106.042 39.6163 105.786 39.8563 105.482 40.0803C105.178 40.2883 104.874 40.4643 104.57 40.6083C104.266 40.7363 104.026 40.8003 103.85 40.8003C103.754 40.8003 103.666 40.7603 103.586 40.6803C103.522 40.5843 103.49 40.4723 103.49 40.3443C103.49 40.1203 103.586 39.9443 103.778 39.8163C103.986 39.6883 104.21 39.5763 104.45 39.4803C104.69 39.3683 104.906 39.2403 105.098 39.0963C105.306 38.9523 105.41 38.7523 105.41 38.4963C105.41 38.4643 105.37 38.3843 105.29 38.2563C105.21 38.1283 104.994 38.0643 104.642 38.0643C104.482 38.0643 104.298 38.1603 104.09 38.3523C103.882 38.5283 103.682 38.7763 103.49 39.0963C103.298 39.4003 103.138 39.7683 103.01 40.2003C102.882 40.6163 102.818 41.0723 102.818 41.5683C102.818 41.9843 102.89 42.3603 103.034 42.6963C103.194 43.0323 103.394 43.3203 103.634 43.5603C103.874 43.7843 104.154 43.9603 104.474 44.0883C104.794 44.2163 105.122 44.2803 105.458 44.2803C105.698 44.2803 105.954 44.2323 106.226 44.1363C106.514 44.0243 106.778 43.9123 107.018 43.8003C107.274 43.6723 107.49 43.5603 107.666 43.4643C107.858 43.3523 107.978 43.2963 108.026 43.2963C108.074 43.2963 108.122 43.3203 108.17 43.3683C108.234 43.4163 108.274 43.4643 108.29 43.5123Z" fill="white"/>
<path fill-rule="evenodd" clip-rule="evenodd" d="M216.41 14.2214L216.006 10.2165L195.045 13.088L195.449 17.0927L216.41 14.2214ZM246.016 19.9864L250.966 31.289L244.165 32.9488L239.214 21.6461L246.016 19.9864ZM219.526 26.972L215.308 25.5992L202.811 36.6626L210.232 46.2649L214.902 44.6833L208.591 36.6525L219.526 26.972ZM226.451 19.1388C212.476 14.5903 192.751 18.333 182.399 27.4972C172.048 36.6614 174.986 47.7805 188.961 52.329C202.936 56.8775 222.661 53.1348 233.012 43.9706C243.364 34.8064 240.426 23.6873 226.451 19.1388ZM188.023 29.3276C179.984 36.445 182.273 45.1086 193.126 48.6412C203.98 52.1738 219.349 49.2577 227.389 42.1402C235.428 35.0227 233.139 26.3592 222.285 22.8266C211.432 19.294 196.063 22.2101 188.023 29.3276Z" fill="black" fill-opacity="0.28"/>
<path fill-rule="evenodd" clip-rule="evenodd" d="M106.397 56.3982L100.573 53.4594L92.1297 64.6285L97.9538 67.5674L106.397 56.3982ZM132.017 48.2514L150.718 54.92L148.994 59.1097L130.292 52.4412L132.017 48.2514ZM126.028 64.9741L121.609 65.7063L129.616 79.6293L147.412 83.924L147.98 80.7036L133.034 77.1567L126.028 64.9741ZM119.217 55.9361C104.576 58.3623 98.0814 69.6812 104.714 81.2141C111.346 92.747 128.596 100.131 143.237 97.7052C157.879 95.279 164.373 83.9601 157.74 72.4272C151.108 60.8943 133.858 53.5099 119.217 55.9361ZM110.606 80.2378C115.757 89.195 129.197 94.9485 140.569 93.0642C151.94 91.1799 157 82.3607 151.849 73.4035C146.698 64.4464 133.257 58.6928 121.886 60.5771C110.515 62.4614 105.455 71.2807 110.606 80.2378Z" fill="black" fill-opacity="0.28"/>
<path fill-rule="evenodd" clip-rule="evenodd" d="M27.1115 109.12L23.7279 112.418L39.2156 123.851L42.5993 120.553L27.1115 109.12ZM14.1421 85.5274L21.3485 73.7444L27.0341 76.9022L19.8278 88.6854L14.1421 85.5274ZM36.7588 97.4309L38.1064 101.21L55.82 100.937L59.9666 88.8396L55.6615 87.006L52.2582 97.1918L36.7588 97.4309ZM25.3989 98.8728C29.864 111.395 45.3821 121.365 60.0549 121.138C74.7277 120.912 83.0048 110.575 78.5397 98.0531C74.0747 85.5313 58.5565 75.5614 43.8838 75.7877C29.211 76.0141 20.9339 86.3511 25.3989 98.8728ZM58.2581 116.099C69.6539 115.923 76.103 107.869 72.6352 98.1442C69.1674 88.419 57.0763 80.6509 45.6805 80.8267C34.2848 81.0025 27.8357 89.0566 31.3035 98.7817C34.7713 108.507 46.8624 116.275 58.2581 116.099Z" fill="black" fill-opacity="0.28"/>
<path fill-rule="evenodd" clip-rule="evenodd" d="M240.81 112.574L247.42 114.585L253.201 103.304L246.592 101.293L240.81 112.574ZM216.927 123.119L196.386 119.21L197.096 115.149L217.638 119.059L216.927 123.119ZM218.86 107.02L223.146 105.821L211.625 93.9632L192.583 92.1299L192.802 95.1605L208.78 96.645L218.86 107.02ZM227.969 114.525C242.167 110.55 245.942 99.363 236.4 89.5411C226.857 79.7192 207.606 74.9782 193.408 78.9531C179.209 82.9281 175.434 94.1154 184.977 103.937C194.52 113.759 213.771 118.5 227.969 114.525ZM230.686 91.1407C223.275 83.5124 208.275 79.8184 197.248 82.9056C186.22 85.9928 183.279 94.7095 190.691 102.338C198.102 109.966 213.102 113.66 224.129 110.573C235.156 107.486 238.098 98.7689 230.686 91.1407Z" fill="black" fill-opacity="0.28"/>
</svg>
