<svg width="1530" height="1147" viewBox="0 0 1530 1147" fill="none" xmlns="http://www.w3.org/2000/svg">
<path d="M1201.25 732.806C1201.25 903.243 1063.02 1041.42 892.5 1041.42C721.978 1041.42 583.75 903.243 583.75 732.806C583.75 562.368 721.978 424.194 892.5 424.194C1063.02 424.194 1201.25 562.368 1201.25 732.806Z" stroke="white" stroke-width="20"/>
<line x1="779.373" y1="1010" x2="779.373" y2="452.428" stroke="white" stroke-width="20"/>
<line x1="995" y1="1025.93" x2="995" y2="433.311" stroke="white" stroke-width="20"/>
<line y1="-10" x2="509.999" y2="-10" transform="matrix(0.999998 0.00176356 -0.0017656 0.999998 637.5 601.149)" stroke="white" stroke-width="20"/>
<line x1="701.25" y1="499.778" x2="1074.19" y2="499.778" stroke="white" stroke-width="20"/>
<line x1="573.75" y1="741.548" x2="1211.25" y2="741.548" stroke="white" stroke-width="20"/>
<line x1="611.248" y1="853.998" x2="1173.75" y2="853.998" stroke="white" stroke-width="20"/>
<line x1="667.503" y1="947.708" x2="1117.5" y2="947.708" stroke="white" stroke-width="20"/>
<path d="M649.049 557.904L647.66 559.26L646.88 561.038L603.71 659.368L603.064 660.841L602.912 662.443L594.029 756.009C570.194 760.397 540.829 761.028 511.311 758.444C478.843 755.603 446.986 748.944 422.993 739.702C374.67 721.09 333.203 688.533 303.967 646.282C274.731 604.033 259.07 554.035 259.008 502.785C258.947 451.534 274.49 401.38 303.636 358.845C332.783 316.309 374.188 283.359 422.48 264.298C470.773 245.237 523.702 240.953 574.381 252.001C625.058 263.05 671.127 288.914 706.607 326.211C740.211 361.535 765.468 417.036 774.75 466.327L709.375 499.616L708.017 500.308L706.926 501.373L649.049 557.904Z" stroke="white" stroke-width="20"/>
<path d="M456.158 308.06V520.412H611.701" stroke="white" stroke-width="20"/>
</svg>
